<?xml version="1.0" standalone="no"?>
<!DOCTYPE svg PUBLIC "-//W3C//DTD SVG 20010904//EN"
 "http://www.w3.org/TR/2001/REC-SVG-20010904/DTD/svg10.dtd">
<svg version="1.0" xmlns="http://www.w3.org/2000/svg"
 width="197.000000pt" height="59.000000pt" viewBox="0 0 197.000000 59.000000"
 preserveAspectRatio="xMidYMid meet">

<g transform="translate(0.000000,59.000000) scale(0.100000,-0.100000)"
fill="#F5F5F5" stroke="none">
<path d="M966 575 c-27 -10 -43 -12 -50 -5 -11 11 -65 13 -90 4 -24 -9 -19
-29 10 -43 l26 -11 -3 -228 c-2 -125 0 -232 4 -239 25 -40 65 45 75 158 l7 74
32 3 c28 3 33 0 38 -25 13 -57 57 -151 83 -176 30 -29 72 -47 107 -47 43 0 39
21 -14 67 -52 46 -88 102 -101 159 -7 30 -5 33 31 47 96 38 107 184 19 247
-41 29 -119 36 -174 15z m125 -84 c67 -67 13 -136 -121 -153 -25 -3 -25 -2
-28 77 -3 93 5 105 76 105 35 0 49 -6 73 -29z"/>
<path d="M14 565 c-4 -9 1 -33 10 -52 23 -49 36 -371 16 -409 -10 -18 -11 -30
-3 -42 9 -15 32 -17 163 -20 132 -2 155 0 171 14 27 24 7 44 -45 44 -22 0 -78
3 -122 6 l-81 7 1 198 1 198 -30 30 c-39 37 -73 48 -81 26z"/>
<path d="M564 411 c-91 -23 -147 -96 -147 -191 0 -35 7 -71 19 -96 51 -104
191 -122 275 -34 128 135 23 363 -147 321z m98 -96 c52 -48 46 -130 -14 -180
-42 -36 -82 -33 -124 9 -27 27 -34 42 -34 73 1 47 17 78 56 104 40 26 83 24
116 -6z"/>
<path d="M1719 397 c-104 -70 -108 -257 -7 -328 68 -49 184 -32 232 33 28 39
15 44 -43 19 -69 -29 -106 -27 -141 7 -53 54 -49 167 7 212 31 24 61 25 108 3
40 -19 50 -14 41 21 -14 56 -133 76 -197 33z"/>
<path d="M1374 391 c-124 -57 -137 -251 -22 -321 69 -42 198 -12 206 48 4 26
4 26 -63 7 -78 -23 -134 4 -135 66 0 25 1 25 112 37 61 6 116 16 121 21 14 14
-37 116 -68 137 -39 25 -103 28 -151 5z m104 -57 c35 -24 27 -41 -24 -48 -92
-12 -104 -5 -59 39 28 29 51 31 83 9z"/>
</g>
</svg>
