<?xml version="1.0" standalone="no"?>
<svg version="1.0" xmlns="http://www.w3.org/2000/svg" width="101" height="33">
<path style="fill:#00ff0000; stroke:none;" d="M0 0L0 3L6 3L6 24L19 24L19 28L0 27L0 33L101 33L101 28C97.2029 28 91.4422 29.0289 88.3179 26.3966C84.4125 23.1062 84.7914 11.8919 89.2284 9.17901C92.4538 7.20694 97.3813 8 101 8L101 0L0 0z"/>
<path style="fill:#ffffff; stroke:none;" d="M0 3C0 8.00219 -2.56721 23.669 1.6034 26.9722C5.16132 29.7901 14.6371 28 19 28L19 24L6 24L6 3L0 3M42 28L48 28L48 18C52.3502 22.5454 56.0325 29.8281 63 27L57 18C74.2453 10.8413 50.5499 -5.27572 43.179 5.43364C39.7565 10.4063 42 22.1379 42 28z"/>
<path style="fill:#545454; stroke:none;" d="M49 7L48 13C56.85 12.9687 57.8101 9.20936 49 7z"/>
<path style="fill:#ffffff; stroke:none;" d="M23.2284 8.74228C18.7112 10.8524 18.4761 22.9916 21.7423 26.2577C24.4133 28.9288 32.6097 28.7587 35.8912 27.3966C41.2081 25.1896 41.4189 14.4335 38.142 10.4336C35.4265 7.11912 26.8769 7.03793 23.2284 8.74228M83 28L83 24L70 21C73.5725 21 78.739 21.8778 81.6821 19.3966C90.8336 11.6816 75.9537 7.1036 70.0185 8.2284C63.0678 9.54566 61.6346 21.9948 66.5139 26.3966C70.082 29.6156 78.5157 28 83 28M101 28L101 24C92.9048 23.9043 92.0058 20.4501 92 13L101 13L101 8C97.3193 8 91.6242 6.98309 88.4336 9.17901C84.6772 11.7645 84.484 24.4138 88.3179 26.9722C91.4845 29.0853 97.3592 28 101 28z"/>
<path style="fill:#545454; stroke:none;" d="M26 13C26.0002 14.668 25.9435 16.3532 26.0193 18.0201C26.6009 30.8078 42.7372 13.1984 26 13M70 17C73.8164 16.9074 76.6343 16.8839 78 13C74.0654 13.0466 71.3429 12.954 70 17M92 13C92.0009 20.9462 92.4255 23.9697 101 24L101 13L92 13z"/>
</svg>
